<svg xmlns="http://www.w3.org/2000/svg" viewBox="0 0 100 100">
  <rect x="10" y="10" width="80" height="80" fill="#555" rx="5" />
  <rect x="20" y="20" width="60" height="60" fill="#333" />
  <circle cx="25" cy="25" r="3" fill="#ff4444" />
  <text x="50" y="55" fill="#fff" font-family="monospace" font-size="20" text-anchor="middle" font-weight="bold">CPU</text>
  <path d="M 10 30 L 5 30 M 10 50 L 5 50 M 10 70 L 5 70" stroke="#ffd700" stroke-width="3" />
  <path d="M 90 30 L 95 30 M 90 50 L 95 50 M 90 70 L 95 70" stroke="#ffd700" stroke-width="3" />
  <path d="M 30 10 L 30 5 M 50 10 L 50 5 M 70 10 L 70 5" stroke="#ffd700" stroke-width="3" />
  <path d="M 30 90 L 30 95 M 50 90 L 50 95 M 70 90 L 70 95" stroke="#ffd700" stroke-width="3" />
</svg>
